<svg width="337" height="24" viewBox="0 0 337 24" fill="none" xmlns="http://www.w3.org/2000/svg">
<path d="M0.192383 10.097V8.647H24.4944V10.097H0.192383ZM24.4912 10.097V8.647H48.7932V10.097H24.4912ZM48.79 10.097V8.647H73.092V10.097H48.79ZM73.0889 10.097V8.647H97.3909V10.097H73.0889ZM117.224 20.653C115.832 20.653 114.333 20.421 112.729 19.957C112.168 19.783 111.617 19.5897 111.076 19.377C110.534 19.1643 109.993 18.942 109.452 18.71C108.756 19.232 107.905 19.667 106.9 20.015C105.894 20.363 104.937 20.537 104.029 20.537C102.849 20.537 101.989 20.276 101.448 19.754C100.926 19.232 100.665 18.652 100.665 18.014C100.665 17.3567 100.926 16.7477 101.448 16.187C101.97 15.6263 102.685 15.346 103.594 15.346C104.328 15.346 105.082 15.5297 105.856 15.897C106.629 16.2643 107.354 16.6027 108.031 16.912C108.224 17.0087 108.427 17.1053 108.64 17.202C108.852 17.2987 109.065 17.3953 109.278 17.492C109.916 16.9313 110.602 16.187 111.337 15.259C112.071 14.331 112.835 13.3063 113.628 12.185C114.42 11.0637 115.223 9.923 116.035 8.763C116.866 7.603 117.697 6.49133 118.529 5.428C119.36 4.36467 120.191 3.43667 121.023 2.644C120.443 2.412 119.824 2.238 119.167 2.122C118.509 1.98667 117.804 1.919 117.05 1.919C115.02 1.919 113.26 2.122 111.772 2.528C110.302 2.91467 109.065 3.427 108.06 4.065C107.074 4.703 106.291 5.38933 105.711 6.124C105.15 6.83933 104.763 7.516 104.551 8.154C104.473 8.40533 104.415 8.63733 104.377 8.85C104.338 9.04333 104.319 9.23667 104.319 9.43C104.319 10.0873 104.522 10.5803 104.928 10.909C105.334 11.2377 105.856 11.402 106.494 11.402C107.151 11.402 107.886 11.2183 108.698 10.851C109.51 10.4837 110.341 9.91333 111.192 9.14C112.042 8.34733 112.825 7.313 113.541 6.037C113.637 5.863 113.782 5.776 113.976 5.776C114.13 5.776 114.256 5.82433 114.353 5.921C114.469 5.99833 114.527 6.11433 114.527 6.269C114.527 6.36567 114.498 6.46233 114.44 6.559C113.666 7.91233 112.806 9.024 111.859 9.894C110.931 10.764 109.993 11.4117 109.046 11.837C108.118 12.243 107.248 12.446 106.436 12.446C105.527 12.446 104.773 12.1947 104.174 11.692C103.574 11.17 103.275 10.4353 103.275 9.488C103.275 8.966 103.371 8.415 103.565 7.835C103.816 7.04233 104.261 6.24 104.899 5.428C105.556 4.616 106.426 3.87167 107.509 3.195C108.611 2.499 109.945 1.93833 111.511 1.513C113.096 1.08767 114.942 0.875 117.05 0.875C117.978 0.875 118.838 0.961999 119.631 1.136C120.443 1.31 121.187 1.55167 121.864 1.861C122.444 1.35833 123.014 0.961999 123.575 0.671999C124.155 0.381999 124.706 0.237 125.228 0.237C125.402 0.237 125.527 0.294999 125.605 0.410999C125.682 0.507666 125.721 0.623666 125.721 0.759C125.721 0.894333 125.682 1.02 125.605 1.136C125.527 1.23267 125.402 1.281 125.228 1.281C124.609 1.281 123.816 1.64833 122.85 2.383C124.377 3.311 125.518 4.54833 126.272 6.095C127.045 7.64167 127.432 9.23667 127.432 10.88C127.432 12.4073 127.122 13.8477 126.504 15.201C125.788 16.8057 124.619 18.1107 122.995 19.116C121.371 20.1407 119.447 20.653 117.224 20.653ZM113.048 18.971C114.498 19.3963 115.88 19.609 117.195 19.609C119.263 19.609 121.013 19.1547 122.444 18.246C123.894 17.318 124.938 16.1483 125.576 14.737C126.136 13.519 126.417 12.2333 126.417 10.88C126.417 9.35267 126.049 7.88333 125.315 6.472C124.58 5.04133 123.478 3.92 122.009 3.108C121.409 3.63 120.8 4.24867 120.182 4.964C119.582 5.67933 118.993 6.45267 118.413 7.284C117.987 7.90267 117.446 8.68567 116.789 9.633C116.131 10.561 115.426 11.5567 114.672 12.62C113.918 13.664 113.154 14.6597 112.381 15.607C111.627 16.5543 110.94 17.3373 110.322 17.956C110.766 18.1493 111.211 18.333 111.656 18.507C112.12 18.681 112.584 18.8357 113.048 18.971ZM101.709 17.985C101.709 18.3523 101.883 18.6907 102.231 19C102.598 19.3287 103.188 19.493 104 19.493C104.696 19.493 105.44 19.377 106.233 19.145C107.025 18.913 107.731 18.6037 108.35 18.217C107.886 18.0043 107.422 17.7917 106.958 17.579C106.494 17.3663 106.02 17.1537 105.537 16.941C105.247 16.8057 104.995 16.6993 104.783 16.622C104.57 16.5253 104.386 16.4673 104.232 16.448C104.135 16.4093 104.038 16.39 103.942 16.39C103.845 16.39 103.748 16.39 103.652 16.39C103.052 16.39 102.579 16.564 102.231 16.912C101.883 17.2407 101.709 17.5983 101.709 17.985ZM135.201 9.981C134.969 9.981 134.757 9.90367 134.563 9.749C134.389 9.575 134.302 9.36233 134.302 9.111C134.302 8.84033 134.389 8.618 134.563 8.444C134.737 8.27 134.95 8.183 135.201 8.183C135.472 8.183 135.694 8.27 135.868 8.444C136.042 8.618 136.129 8.84033 136.129 9.111C136.129 9.36233 136.033 9.575 135.839 9.749C135.665 9.90367 135.453 9.981 135.201 9.981ZM130.909 18.681C130.658 18.681 130.455 18.6133 130.3 18.478C130.146 18.3233 130.068 18.0817 130.068 17.753C130.068 17.347 130.165 16.854 130.358 16.274C130.552 15.6747 130.803 15.0657 131.112 14.447C131.422 13.809 131.75 13.229 132.098 12.707C132.466 12.1657 132.814 11.7403 133.142 11.431C133.278 11.2957 133.442 11.228 133.635 11.228C133.79 11.228 133.925 11.2667 134.041 11.344C134.157 11.4213 134.215 11.518 134.215 11.634C134.215 11.7307 134.167 11.8273 134.07 11.924C133.935 12.0593 133.761 12.2817 133.548 12.591C133.355 12.881 133.162 13.1903 132.968 13.519C132.775 13.8283 132.63 14.0893 132.533 14.302C132.359 14.6693 132.166 15.085 131.953 15.549C131.741 16.013 131.586 16.39 131.489 16.68C131.431 16.8733 131.402 17.0183 131.402 17.115C131.402 17.3277 131.48 17.434 131.634 17.434C131.77 17.434 131.924 17.376 132.098 17.26C132.272 17.1247 132.427 17.0087 132.562 16.912C133.046 16.5253 133.49 16.1193 133.896 15.694C134.322 15.2493 134.708 14.8337 135.056 14.447C135.134 14.3503 135.23 14.302 135.346 14.302C135.443 14.302 135.53 14.36 135.607 14.476C135.704 14.5727 135.752 14.6983 135.752 14.853C135.752 15.027 135.704 15.172 135.607 15.288C135.317 15.694 134.911 16.1483 134.389 16.651C133.887 17.1343 133.442 17.521 133.055 17.811C132.804 18.0043 132.466 18.1977 132.04 18.391C131.634 18.5843 131.257 18.681 130.909 18.681ZM135.537 19.145C134.996 19.145 134.59 18.9903 134.319 18.681C134.068 18.3523 133.942 17.9463 133.942 17.463C133.942 16.9217 134.097 16.2933 134.406 15.578C134.735 14.8433 135.16 14.0893 135.682 13.316C136.204 12.5427 136.774 11.8273 137.393 11.17C138.031 10.4933 138.669 9.952 139.307 9.546C139.945 9.12067 140.535 8.908 141.076 8.908C141.443 8.908 141.801 8.966 142.149 9.082C142.497 9.17867 142.777 9.38167 142.99 9.691C143.222 10.0003 143.338 10.4547 143.338 11.054C143.338 11.2667 143.28 11.4213 143.164 11.518C143.048 11.6147 142.942 11.663 142.845 11.663C142.632 11.663 142.526 11.5857 142.526 11.431C142.429 10.8123 142.226 10.4063 141.917 10.213C141.627 10.0197 141.347 9.923 141.076 9.923C140.689 9.923 140.235 10.1163 139.713 10.503C139.191 10.8897 138.659 11.3827 138.118 11.982C137.577 12.5813 137.064 13.229 136.581 13.925C136.117 14.6017 135.74 15.259 135.45 15.897C135.16 16.5157 135.015 17.028 135.015 17.434C135.015 17.6273 135.044 17.8013 135.102 17.956C135.179 18.1107 135.295 18.188 135.45 18.188C135.74 18.188 136.117 18.0333 136.581 17.724C137.045 17.4147 137.538 17.0183 138.06 16.535C138.601 16.0323 139.133 15.5103 139.655 14.969C140.177 14.4277 140.651 13.9153 141.076 13.432C141.501 12.9487 141.83 12.562 142.062 12.272C142.178 12.098 142.323 12.011 142.497 12.011C142.632 12.011 142.758 12.0593 142.874 12.156C142.99 12.2527 143.048 12.3783 143.048 12.533C143.048 12.6103 143.019 12.6973 142.961 12.794C142.826 13.0067 142.661 13.3063 142.468 13.693C142.294 14.0797 142.11 14.4953 141.917 14.94C141.743 15.3847 141.588 15.8003 141.453 16.187C141.337 16.5543 141.279 16.8347 141.279 17.028C141.279 17.2213 141.347 17.318 141.482 17.318C141.579 17.318 141.695 17.2697 141.83 17.173C141.985 17.0763 142.12 16.9893 142.236 16.912C142.7 16.5253 143.145 16.1193 143.57 15.694C143.995 15.2493 144.382 14.8337 144.73 14.447C144.807 14.3503 144.904 14.302 145.02 14.302C145.117 14.302 145.204 14.36 145.281 14.476C145.378 14.5727 145.426 14.6983 145.426 14.853C145.426 15.027 145.378 15.172 145.281 15.288C144.972 15.694 144.566 16.1483 144.063 16.651C143.56 17.1343 143.116 17.521 142.729 17.811C142.478 17.985 142.178 18.159 141.83 18.333C141.501 18.4877 141.182 18.565 140.873 18.565C140.641 18.565 140.448 18.4973 140.293 18.362C140.138 18.2073 140.061 17.9463 140.061 17.579C140.061 17.289 140.109 16.9603 140.206 16.593C140.303 16.2257 140.419 15.8487 140.554 15.462C140.013 16.042 139.433 16.6123 138.814 17.173C138.195 17.7337 137.596 18.2073 137.016 18.594C136.455 18.9613 135.962 19.145 135.537 19.145ZM144.266 19.667C144.13 19.667 144.005 19.6187 143.889 19.522C143.773 19.4253 143.715 19.3093 143.715 19.174C143.715 19.1353 143.734 19.058 143.773 18.942C144.159 18.1107 144.536 17.3567 144.904 16.68C145.29 15.984 145.687 15.3073 146.093 14.65C146.267 14.3793 146.46 14.0313 146.673 13.606C146.905 13.1613 147.127 12.6877 147.34 12.185C147.552 11.663 147.726 11.17 147.862 10.706C148.016 10.242 148.094 9.865 148.094 9.575C148.094 9.42033 148.084 9.314 148.065 9.256C148.045 9.23667 148.036 9.198 148.036 9.14C148.036 8.98533 148.103 8.85967 148.239 8.763C148.393 8.647 148.538 8.589 148.674 8.589C148.828 8.589 148.973 8.66633 149.109 8.821C149.244 8.95633 149.312 9.198 149.312 9.546C149.312 9.836 149.244 10.2227 149.109 10.706C148.993 11.17 148.79 11.7307 148.5 12.388C148.345 12.7167 148.2 13.026 148.065 13.316C147.929 13.5867 147.794 13.8477 147.659 14.099C148.413 13.3063 149.186 12.6007 149.979 11.982C150.771 11.344 151.477 10.8413 152.096 10.474C152.714 10.1067 153.13 9.923 153.343 9.923C153.575 9.923 153.739 9.99067 153.836 10.126C153.932 10.2613 153.981 10.416 153.981 10.59C153.981 10.8413 153.903 11.1313 153.749 11.46C153.613 11.7693 153.468 12.0497 153.314 12.301C153.159 12.5523 153.053 12.7263 152.995 12.823C152.782 13.1517 152.492 13.6447 152.125 14.302C151.757 14.9593 151.448 15.5973 151.197 16.216C151.119 16.4287 151.042 16.651 150.965 16.883C150.907 17.0957 150.878 17.2793 150.878 17.434C150.878 17.6853 150.984 17.811 151.197 17.811C151.39 17.811 151.67 17.7143 152.038 17.521C152.502 17.2697 152.927 16.9507 153.314 16.564C153.72 16.158 154.068 15.81 154.358 15.52C154.377 15.5007 154.464 15.404 154.619 15.23C154.793 15.056 154.957 14.882 155.112 14.708C155.286 14.534 155.373 14.447 155.373 14.447C155.45 14.3503 155.547 14.302 155.663 14.302C155.759 14.302 155.846 14.36 155.924 14.476C156.02 14.5727 156.069 14.6983 156.069 14.853C156.069 15.027 156.02 15.172 155.924 15.288C155.634 15.694 155.237 16.1387 154.735 16.622C154.232 17.1053 153.787 17.5017 153.401 17.811C152.995 18.1203 152.579 18.3717 152.154 18.565C151.748 18.739 151.342 18.826 150.936 18.826C150.588 18.826 150.298 18.7583 150.066 18.623C149.834 18.4877 149.718 18.13 149.718 17.55C149.718 16.8153 149.901 16.0903 150.269 15.375C150.655 14.6597 151.081 13.954 151.545 13.258C152.028 12.562 152.424 11.9047 152.734 11.286C152.25 11.576 151.603 12.0207 150.791 12.62C149.998 13.2193 149.157 13.925 148.268 14.737C147.398 15.5297 146.605 16.3997 145.89 17.347C145.754 17.5983 145.609 17.869 145.455 18.159C145.3 18.449 145.145 18.768 144.991 19.116C144.817 19.4833 144.575 19.667 144.266 19.667ZM166.664 17.26C165.639 17.26 164.808 17.057 164.17 16.651C163.745 16.3803 163.464 16.071 163.329 15.723C163.194 15.3557 163.126 15.0077 163.126 14.679C163.126 14.099 163.29 13.5093 163.619 12.91C163.967 12.3107 164.402 11.7403 164.924 11.199C165.465 10.6577 166.026 10.184 166.606 9.778C167.205 9.35267 167.766 9.04333 168.288 8.85C168.481 8.77267 168.675 8.705 168.868 8.647C169.081 8.56967 169.284 8.502 169.477 8.444C169.342 8.30867 169.216 8.154 169.1 7.98C168.984 7.78667 168.887 7.58367 168.81 7.371C168.713 7.081 168.665 6.82 168.665 6.588C168.665 5.95 168.897 5.37 169.361 4.848C169.825 4.326 170.395 3.87167 171.072 3.485C171.768 3.09833 172.464 2.80833 173.16 2.615C173.856 2.40233 174.436 2.296 174.9 2.296C175.596 2.296 176.108 2.47 176.437 2.818C176.766 3.14667 176.93 3.543 176.93 4.007C176.93 4.39367 176.833 4.75133 176.64 5.08C176.447 5.40867 176.244 5.66967 176.031 5.863C175.838 6.037 175.673 6.124 175.538 6.124C175.383 6.124 175.306 6.02733 175.306 5.834C175.306 5.62133 175.432 5.29267 175.683 4.848C175.838 4.57733 175.915 4.326 175.915 4.094C175.915 3.82333 175.799 3.601 175.567 3.427C175.354 3.253 175.006 3.195 174.523 3.253C174.194 3.27233 173.759 3.37867 173.218 3.572C172.696 3.76533 172.164 4.01667 171.623 4.326C171.082 4.616 170.627 4.95433 170.26 5.341C169.893 5.72767 169.709 6.13367 169.709 6.559C169.709 6.81033 169.777 7.04233 169.912 7.255C170.125 7.62233 170.463 7.893 170.927 8.067H170.956C171.343 7.98967 171.652 7.94133 171.884 7.922C172.135 7.90267 172.3 7.88333 172.377 7.864C172.435 7.864 172.483 7.864 172.522 7.864C172.58 7.84467 172.628 7.835 172.667 7.835C172.976 7.835 173.199 7.893 173.334 8.009C173.489 8.125 173.566 8.26033 173.566 8.415C173.566 8.56967 173.479 8.71467 173.305 8.85C173.15 8.98533 172.909 9.053 172.58 9.053C172.29 9.053 172.01 9.06267 171.739 9.082C171.488 9.082 171.256 9.07233 171.043 9.053C170.714 9.13033 170.347 9.23667 169.941 9.372C169.535 9.488 169.129 9.633 168.723 9.807C168.336 9.96167 167.882 10.213 167.36 10.561C166.857 10.8897 166.355 11.286 165.852 11.75C165.369 12.1947 164.963 12.6587 164.634 13.142C164.325 13.606 164.17 14.0603 164.17 14.505C164.17 14.853 164.238 15.143 164.373 15.375C164.528 15.5877 164.721 15.7713 164.953 15.926C165.03 15.984 165.108 16.0323 165.185 16.071C165.282 16.1097 165.369 16.1483 165.446 16.187C165.833 16.303 166.248 16.361 166.693 16.361C167.486 16.361 168.327 16.2063 169.216 15.897C170.125 15.5877 170.937 15.2107 171.652 14.766C172.155 14.4567 172.657 14.0313 173.16 13.49C173.682 12.9487 174.011 12.301 174.146 11.547C173.895 11.547 173.634 11.547 173.363 11.547C173.092 11.5277 172.831 11.5277 172.58 11.547C172.329 11.547 172.077 11.5663 171.826 11.605C171.594 11.6243 171.381 11.6727 171.188 11.75C170.801 11.866 170.608 12.0787 170.608 12.388C170.608 12.446 170.618 12.504 170.637 12.562C170.676 12.62 170.705 12.678 170.724 12.736C170.782 12.8133 170.811 12.881 170.811 12.939C170.811 13.055 170.753 13.1517 170.637 13.229C170.54 13.287 170.424 13.316 170.289 13.316C170.115 13.316 169.97 13.258 169.854 13.142C169.545 12.8327 169.39 12.5137 169.39 12.185C169.39 11.547 169.844 11.0637 170.753 10.735C170.985 10.6577 171.227 10.6093 171.478 10.59C171.749 10.5513 172.029 10.5223 172.319 10.503C172.474 10.4837 172.619 10.474 172.754 10.474C172.909 10.474 173.063 10.474 173.218 10.474C173.373 10.474 173.527 10.474 173.682 10.474C173.837 10.474 173.982 10.4837 174.117 10.503C174.581 10.503 175.064 10.4933 175.567 10.474C176.089 10.4353 176.582 10.3387 177.046 10.184C177.529 10.0293 177.926 9.76833 178.235 9.401C178.312 9.30433 178.399 9.256 178.496 9.256C178.67 9.256 178.757 9.372 178.757 9.604C178.757 9.79733 178.689 10.0003 178.554 10.213C178.477 10.387 178.322 10.5707 178.09 10.764C177.858 10.9573 177.674 11.083 177.539 11.141C177.21 11.315 176.833 11.431 176.408 11.489C175.983 11.547 175.548 11.576 175.103 11.576C175.045 12.4073 174.687 13.229 174.03 14.041C173.373 14.8337 172.57 15.4813 171.623 15.984C170.888 16.3707 170.076 16.68 169.187 16.912C168.298 17.144 167.457 17.26 166.664 17.26ZM206.294 23.959C205.579 23.959 204.95 23.7463 204.409 23.321C203.868 22.8957 203.597 22.1997 203.597 21.233C203.616 20.3437 203.8 19.3383 204.148 18.217C204.515 17.0957 204.979 15.926 205.54 14.708C206.12 13.49 206.739 12.2817 207.396 11.083C208.073 9.865 208.73 8.71467 209.368 7.632C210.006 6.54933 210.567 5.59233 211.05 4.761C211.263 4.413 211.408 4.123 211.485 3.891C211.562 3.63967 211.601 3.43667 211.601 3.282C211.601 2.91467 211.379 2.731 210.934 2.731C210.644 2.731 210.286 2.80833 209.861 2.963C209.455 3.09833 209.03 3.27233 208.585 3.485C208.16 3.67833 207.773 3.88133 207.425 4.094C207.077 4.28733 206.826 4.442 206.671 4.558C204.776 6.008 203.056 7.67067 201.509 9.546C201.219 9.87467 200.823 10.3677 200.32 11.025C199.837 11.663 199.295 12.3783 198.696 13.171C198.116 13.9443 197.526 14.737 196.927 15.549C196.347 16.3417 195.806 17.0763 195.303 17.753C194.82 18.4297 194.423 18.971 194.114 19.377C193.824 19.8023 193.679 20.015 193.679 20.015C193.544 20.189 193.379 20.276 193.186 20.276C192.877 20.276 192.722 20.1213 192.722 19.812C192.722 19.7153 192.751 19.609 192.809 19.493C192.809 19.493 192.906 19.319 193.099 18.971C193.312 18.6037 193.582 18.1203 193.911 17.521C194.24 16.9217 194.597 16.274 194.984 15.578C195.39 14.882 195.777 14.186 196.144 13.49C196.511 12.794 196.84 12.1657 197.13 11.605C197.884 10.1163 198.416 8.821 198.725 7.719C199.054 6.617 199.218 5.69867 199.218 4.964C199.218 3.82333 198.957 3.04033 198.435 2.615C197.913 2.18967 197.314 1.977 196.637 1.977C195.342 1.977 194.124 2.21867 192.983 2.702C191.842 3.166 190.789 3.78467 189.822 4.558C188.875 5.33133 188.053 6.182 187.357 7.11C186.68 8.038 186.149 8.97567 185.762 9.923C185.395 10.851 185.211 11.7017 185.211 12.475C185.211 13.287 185.443 13.954 185.907 14.476C186.371 14.9787 187.096 15.23 188.082 15.23C188.933 15.23 189.716 15.056 190.431 14.708C191.146 14.36 191.765 13.925 192.287 13.403C192.809 12.8617 193.205 12.3107 193.476 11.75C193.766 11.17 193.911 10.6577 193.911 10.213C193.911 9.459 193.515 9.082 192.722 9.082H192.693C192.519 9.082 192.384 9.04333 192.287 8.966C192.21 8.86933 192.171 8.77267 192.171 8.676C192.171 8.386 192.403 8.241 192.867 8.241C193.582 8.241 194.104 8.43433 194.433 8.821C194.762 9.18833 194.926 9.65233 194.926 10.213C194.926 10.793 194.762 11.431 194.433 12.127C194.104 12.823 193.631 13.49 193.012 14.128C192.413 14.7467 191.678 15.259 190.808 15.665C189.957 16.0517 189.01 16.245 187.966 16.245C186.613 16.245 185.627 15.897 185.008 15.201C184.389 14.505 184.08 13.6253 184.08 12.562C184.08 11.112 184.573 9.546 185.559 7.864C186.255 6.68467 187.154 5.573 188.256 4.529C189.377 3.46567 190.653 2.60533 192.084 1.948C193.515 1.29067 195.042 0.961999 196.666 0.961999C198.039 0.961999 198.986 1.29067 199.508 1.948C200.049 2.60533 200.32 3.43667 200.32 4.442C200.32 5.196 200.214 5.99833 200.001 6.849C199.788 7.68033 199.518 8.502 199.189 9.314C198.88 10.126 198.561 10.8703 198.232 11.547C197.923 12.2237 197.662 12.765 197.449 13.171C198.126 12.2623 198.754 11.4213 199.334 10.648C199.914 9.87467 200.359 9.29467 200.668 8.908C201.209 8.28933 201.876 7.574 202.669 6.762C203.462 5.93067 204.322 5.138 205.25 4.384C206.197 3.61067 207.154 2.97267 208.121 2.47C209.107 1.96733 210.064 1.716 210.992 1.716C212.133 1.716 212.703 2.18967 212.703 3.137C212.703 3.73633 212.461 4.43233 211.978 5.225C211.823 5.49567 211.543 5.979 211.137 6.675C210.731 7.35167 210.248 8.17333 209.687 9.14C209.146 10.0873 208.585 11.112 208.005 12.214C207.425 13.316 206.884 14.418 206.381 15.52C205.878 16.622 205.472 17.666 205.163 18.652C204.854 19.6187 204.699 20.45 204.699 21.146C204.699 21.6873 204.815 22.1223 205.047 22.451C205.298 22.7797 205.704 22.944 206.265 22.944C206.748 22.944 207.251 22.8183 207.773 22.567C208.295 22.335 208.691 22.074 208.962 21.784C209.059 21.6293 209.204 21.552 209.397 21.552C209.532 21.552 209.648 21.5907 209.745 21.668C209.842 21.7647 209.89 21.8807 209.89 22.016C209.89 22.1707 209.842 22.2963 209.745 22.393C209.32 22.8763 208.788 23.2533 208.15 23.524C207.531 23.814 206.913 23.959 206.294 23.959ZM211.067 19.145C210.526 19.145 210.12 18.9903 209.849 18.681C209.598 18.3523 209.472 17.9463 209.472 17.463C209.472 16.9217 209.627 16.2933 209.936 15.578C210.265 14.8433 210.69 14.0893 211.212 13.316C211.734 12.5427 212.305 11.8273 212.923 11.17C213.561 10.4933 214.199 9.952 214.837 9.546C215.475 9.12067 216.065 8.908 216.606 8.908C216.974 8.908 217.331 8.966 217.679 9.082C218.027 9.17867 218.308 9.38167 218.52 9.691C218.752 10.0003 218.868 10.4547 218.868 11.054C218.868 11.2667 218.81 11.4213 218.694 11.518C218.578 11.6147 218.472 11.663 218.375 11.663C218.163 11.663 218.056 11.5857 218.056 11.431C217.96 10.8123 217.757 10.4063 217.447 10.213C217.157 10.0197 216.877 9.923 216.606 9.923C216.22 9.923 215.765 10.1163 215.243 10.503C214.721 10.8897 214.19 11.3827 213.648 11.982C213.107 12.5813 212.595 13.229 212.111 13.925C211.647 14.6017 211.27 15.259 210.98 15.897C210.69 16.5157 210.545 17.028 210.545 17.434C210.545 17.6273 210.574 17.8013 210.632 17.956C210.71 18.1107 210.826 18.188 210.98 18.188C211.27 18.188 211.647 18.0333 212.111 17.724C212.575 17.4147 213.068 17.0183 213.59 16.535C214.132 16.0323 214.663 15.5103 215.185 14.969C215.707 14.4277 216.181 13.9153 216.606 13.432C217.032 12.9487 217.36 12.562 217.592 12.272C217.708 12.098 217.853 12.011 218.027 12.011C218.163 12.011 218.288 12.0593 218.404 12.156C218.52 12.2527 218.578 12.3783 218.578 12.533C218.578 12.6103 218.549 12.6973 218.491 12.794C218.356 13.0067 218.192 13.3063 217.998 13.693C217.824 14.0797 217.641 14.4953 217.447 14.94C217.273 15.3847 217.119 15.8003 216.983 16.187C216.867 16.5543 216.809 16.8347 216.809 17.028C216.809 17.2213 216.877 17.318 217.012 17.318C217.109 17.318 217.225 17.2697 217.36 17.173C217.515 17.0763 217.65 16.9893 217.766 16.912C218.23 16.5253 218.675 16.1193 219.1 15.694C219.526 15.2493 219.912 14.8337 220.26 14.447C220.338 14.3503 220.434 14.302 220.55 14.302C220.647 14.302 220.734 14.36 220.811 14.476C220.908 14.5727 220.956 14.6983 220.956 14.853C220.956 15.027 220.908 15.172 220.811 15.288C220.502 15.694 220.096 16.1483 219.593 16.651C219.091 17.1343 218.646 17.521 218.259 17.811C218.008 17.985 217.708 18.159 217.36 18.333C217.032 18.4877 216.713 18.565 216.403 18.565C216.171 18.565 215.978 18.4973 215.823 18.362C215.669 18.2073 215.591 17.9463 215.591 17.579C215.591 17.289 215.64 16.9603 215.736 16.593C215.833 16.2257 215.949 15.8487 216.084 15.462C215.543 16.042 214.963 16.6123 214.344 17.173C213.726 17.7337 213.126 18.2073 212.546 18.594C211.986 18.9613 211.493 19.145 211.067 19.145ZM224.75 9.981C224.518 9.981 224.306 9.90367 224.112 9.749C223.938 9.575 223.851 9.36233 223.851 9.111C223.851 8.84033 223.938 8.618 224.112 8.444C224.286 8.27 224.499 8.183 224.75 8.183C225.021 8.183 225.243 8.27 225.417 8.444C225.591 8.618 225.678 8.84033 225.678 9.111C225.678 9.36233 225.582 9.575 225.388 9.749C225.214 9.90367 225.002 9.981 224.75 9.981ZM220.458 18.681C220.207 18.681 220.004 18.6133 219.849 18.478C219.695 18.3233 219.617 18.0817 219.617 17.753C219.617 17.347 219.714 16.854 219.907 16.274C220.101 15.6747 220.352 15.0657 220.661 14.447C220.971 13.809 221.299 13.229 221.647 12.707C222.015 12.1657 222.363 11.7403 222.691 11.431C222.827 11.2957 222.991 11.228 223.184 11.228C223.339 11.228 223.474 11.2667 223.59 11.344C223.706 11.4213 223.764 11.518 223.764 11.634C223.764 11.7307 223.716 11.8273 223.619 11.924C223.484 12.0593 223.31 12.2817 223.097 12.591C222.904 12.881 222.711 13.1903 222.517 13.519C222.324 13.8283 222.179 14.0893 222.082 14.302C221.908 14.6693 221.715 15.085 221.502 15.549C221.29 16.013 221.135 16.39 221.038 16.68C220.98 16.8733 220.951 17.0183 220.951 17.115C220.951 17.3277 221.029 17.434 221.183 17.434C221.319 17.434 221.473 17.376 221.647 17.26C221.821 17.1247 221.976 17.0087 222.111 16.912C222.595 16.5253 223.039 16.1193 223.445 15.694C223.871 15.2493 224.257 14.8337 224.605 14.447C224.683 14.3503 224.779 14.302 224.895 14.302C224.992 14.302 225.079 14.36 225.156 14.476C225.253 14.5727 225.301 14.6983 225.301 14.853C225.301 15.027 225.253 15.172 225.156 15.288C224.866 15.694 224.46 16.1483 223.938 16.651C223.436 17.1343 222.991 17.521 222.604 17.811C222.353 18.0043 222.015 18.1977 221.589 18.391C221.183 18.5843 220.806 18.681 220.458 18.681ZM225.84 19.551C225.144 19.551 224.67 19.3577 224.419 18.971C224.167 18.565 224.042 18.0913 224.042 17.55C224.042 17.0473 224.1 16.5447 224.216 16.042C224.351 15.52 224.477 15.085 224.593 14.737C224.612 14.6597 224.641 14.5823 224.68 14.505C224.641 14.447 224.622 14.3697 224.622 14.273C224.622 13.9443 224.738 13.7413 224.97 13.664C225.318 12.7747 225.724 11.8757 226.188 10.967C226.652 10.039 227.125 9.17867 227.609 8.386C228.092 7.59333 228.517 6.92633 228.885 6.385C229.175 5.979 229.523 5.49567 229.929 4.935C230.354 4.355 230.828 3.78467 231.35 3.224C231.891 2.66333 232.471 2.19933 233.09 1.832C233.708 1.44533 234.346 1.252 235.004 1.252C235.545 1.252 235.922 1.368 236.135 1.6C236.367 1.832 236.483 2.14133 236.483 2.528C236.483 2.89533 236.396 3.32067 236.222 3.804C236.048 4.28733 235.816 4.79 235.526 5.312C235.12 6.04667 234.559 6.849 233.844 7.719C233.128 8.589 232.336 9.44933 231.466 10.3C230.596 11.1507 229.687 11.924 228.74 12.62C227.792 13.316 226.864 13.8767 225.956 14.302C225.84 14.6693 225.685 15.1527 225.492 15.752C225.298 16.332 225.202 16.8637 225.202 17.347C225.202 17.6757 225.269 17.956 225.405 18.188C225.54 18.4007 225.791 18.507 226.159 18.507C226.429 18.507 226.768 18.4297 227.174 18.275C227.599 18.101 228.082 17.84 228.624 17.492C229.242 17.086 229.832 16.6027 230.393 16.042C230.953 15.4813 231.456 14.9303 231.901 14.389C231.997 14.273 232.084 14.215 232.162 14.215C232.258 14.215 232.345 14.2827 232.423 14.418C232.519 14.534 232.568 14.6693 232.568 14.824C232.568 15.0173 232.519 15.172 232.423 15.288C232.133 15.694 231.736 16.1387 231.234 16.622C230.75 17.1053 230.315 17.492 229.929 17.782C229.735 17.9173 229.503 18.072 229.233 18.246C228.962 18.42 228.517 18.6713 227.899 19C227.589 19.1547 227.251 19.2803 226.884 19.377C226.536 19.493 226.188 19.551 225.84 19.551ZM229.32 7.835C228.74 8.68567 228.218 9.546 227.754 10.416C227.29 11.286 226.884 12.1077 226.536 12.881C227.58 12.2623 228.624 11.489 229.668 10.561C230.712 9.61367 231.669 8.618 232.539 7.574C233.409 6.53 234.105 5.544 234.627 4.616C235.091 3.804 235.323 3.18533 235.323 2.76C235.323 2.43133 235.168 2.267 234.859 2.267C234.395 2.267 233.892 2.47967 233.351 2.905C232.809 3.33033 232.278 3.862 231.756 4.5C231.234 5.11867 230.76 5.73733 230.335 6.356C229.909 6.97467 229.571 7.46767 229.32 7.835ZM232.421 19.145C231.879 19.145 231.473 18.9903 231.203 18.681C230.951 18.3523 230.826 17.9463 230.826 17.463C230.826 16.9217 230.98 16.2933 231.29 15.578C231.618 14.8433 232.044 14.0893 232.566 13.316C233.088 12.5427 233.658 11.8273 234.277 11.17C234.915 10.4933 235.553 9.952 236.191 9.546C236.829 9.12067 237.418 8.908 237.96 8.908C238.327 8.908 238.685 8.966 239.033 9.082C239.381 9.17867 239.661 9.38167 239.874 9.691C240.106 10.0003 240.222 10.4547 240.222 11.054C240.222 11.2667 240.164 11.4213 240.048 11.518C239.932 11.6147 239.825 11.663 239.729 11.663C239.516 11.663 239.41 11.5857 239.41 11.431C239.313 10.8123 239.11 10.4063 238.801 10.213C238.511 10.0197 238.23 9.923 237.96 9.923C237.573 9.923 237.119 10.1163 236.597 10.503C236.075 10.8897 235.543 11.3827 235.002 11.982C234.46 12.5813 233.948 13.229 233.465 13.925C233.001 14.6017 232.624 15.259 232.334 15.897C232.044 16.5157 231.899 17.028 231.899 17.434C231.899 17.6273 231.928 17.8013 231.986 17.956C232.063 18.1107 232.179 18.188 232.334 18.188C232.624 18.188 233.001 18.0333 233.465 17.724C233.929 17.4147 234.422 17.0183 234.944 16.535C235.485 16.0323 236.017 15.5103 236.539 14.969C237.061 14.4277 237.534 13.9153 237.96 13.432C238.385 12.9487 238.714 12.562 238.946 12.272C239.062 12.098 239.207 12.011 239.381 12.011C239.516 12.011 239.642 12.0593 239.758 12.156C239.874 12.2527 239.932 12.3783 239.932 12.533C239.932 12.6103 239.903 12.6973 239.845 12.794C239.709 13.0067 239.545 13.3063 239.352 13.693C239.178 14.0797 238.994 14.4953 238.801 14.94C238.627 15.3847 238.472 15.8003 238.337 16.187C238.221 16.5543 238.163 16.8347 238.163 17.028C238.163 17.2213 238.23 17.318 238.366 17.318C238.462 17.318 238.578 17.2697 238.714 17.173C238.868 17.0763 239.004 16.9893 239.12 16.912C239.584 16.5253 240.028 16.1193 240.454 15.694C240.879 15.2493 241.266 14.8337 241.614 14.447C241.691 14.3503 241.788 14.302 241.904 14.302C242 14.302 242.087 14.36 242.165 14.476C242.261 14.5727 242.31 14.6983 242.31 14.853C242.31 15.027 242.261 15.172 242.165 15.288C241.855 15.694 241.449 16.1483 240.947 16.651C240.444 17.1343 239.999 17.521 239.613 17.811C239.361 17.985 239.062 18.159 238.714 18.333C238.385 18.4877 238.066 18.565 237.757 18.565C237.525 18.565 237.331 18.4973 237.177 18.362C237.022 18.2073 236.945 17.9463 236.945 17.579C236.945 17.289 236.993 16.9603 237.09 16.593C237.186 16.2257 237.302 15.8487 237.438 15.462C236.896 16.042 236.316 16.6123 235.698 17.173C235.079 17.7337 234.48 18.2073 233.9 18.594C233.339 18.9613 232.846 19.145 232.421 19.145ZM239.612 10.097V8.647H263.914V10.097H239.612ZM263.911 10.097V8.647H288.213V10.097H263.911ZM288.21 10.097V8.647H312.512V10.097H288.21ZM312.509 10.097V8.647H336.811V10.097H312.509Z" fill="#895542"/>
</svg>
