<svg width="19" height="18" viewBox="0 0 19 18" fill="none" xmlns="http://www.w3.org/2000/svg">
<path d="M8.3125 18.0002C8.3125 18.0002 7.125 18.0002 7.125 16.5002C7.125 15.0002 8.3125 10.5002 13.0625 10.5002C17.8125 10.5002 19 15.0002 19 16.5002C19 18.0002 17.8125 18.0002 17.8125 18.0002H8.3125ZM13.0625 9.00021C14.0073 9.00021 14.9135 8.52611 15.5816 7.68219C16.2497 6.83828 16.625 5.69369 16.625 4.50021C16.625 3.30674 16.2497 2.16215 15.5816 1.31823C14.9135 0.47432 14.0073 0.000213623 13.0625 0.000213623C12.1177 0.000213623 11.2115 0.47432 10.5434 1.31823C9.87533 2.16215 9.5 3.30674 9.5 4.50021C9.5 5.69369 9.87533 6.83828 10.5434 7.68219C11.2115 8.52611 12.1177 9.00021 13.0625 9.00021ZM6.194 18.0002C6.01804 17.5319 5.93025 17.0185 5.9375 16.5002C5.9375 14.4677 6.745 12.3752 8.2365 10.9202C7.49215 10.6299 6.71647 10.4882 5.9375 10.5002C1.1875 10.5002 0 15.0002 0 16.5002C0 18.0002 1.1875 18.0002 1.1875 18.0002H6.194ZM5.34375 9.00021C6.13111 9.00021 6.88622 8.60513 7.44297 7.90186C7.99972 7.1986 8.3125 6.24478 8.3125 5.25021C8.3125 4.25565 7.99972 3.30182 7.44297 2.59856C6.88622 1.8953 6.13111 1.50021 5.34375 1.50021C4.55639 1.50021 3.80128 1.8953 3.24453 2.59856C2.68778 3.30182 2.375 4.25565 2.375 5.25021C2.375 6.24478 2.68778 7.1986 3.24453 7.90186C3.80128 8.60513 4.55639 9.00021 5.34375 9.00021Z" fill="black"/>
</svg>
