<svg width="19" height="18" viewBox="0 0 19 18" fill="none" xmlns="http://www.w3.org/2000/svg">
<g clip-path="url(#clip0_286_24)">
<path d="M4.15625 0C4.31372 0 4.46474 0.0592632 4.57609 0.164752C4.68744 0.270242 4.75 0.413316 4.75 0.5625V1.125H14.25V0.5625C14.25 0.413316 14.3126 0.270242 14.4239 0.164752C14.5353 0.0592632 14.6863 0 14.8438 0C15.0012 0 15.1522 0.0592632 15.2636 0.164752C15.3749 0.270242 15.4375 0.413316 15.4375 0.5625V1.125H16.625C17.2549 1.125 17.859 1.36205 18.3044 1.78401C18.7498 2.20597 19 2.77826 19 3.375V15.75C19 16.3467 18.7498 16.919 18.3044 17.341C17.859 17.7629 17.2549 18 16.625 18H2.375C1.74511 18 1.14102 17.7629 0.695621 17.341C0.250223 16.919 0 16.3467 0 15.75V3.375C0 2.77826 0.250223 2.20597 0.695621 1.78401C1.14102 1.36205 1.74511 1.125 2.375 1.125H3.5625V0.5625C3.5625 0.413316 3.62506 0.270242 3.73641 0.164752C3.84776 0.0592632 3.99878 0 4.15625 0ZM15.9766 3.375H3.02219C2.66594 3.375 2.375 3.627 2.375 3.9375V5.0625C2.375 5.373 2.66475 5.625 3.02219 5.625H15.9778C16.3341 5.625 16.625 5.373 16.625 5.0625V3.9375C16.625 3.627 16.3353 3.375 15.9766 3.375ZM12.8891 9.96075C13.0006 9.85513 13.0632 9.71187 13.0632 9.5625C13.0632 9.41313 13.0006 9.26987 12.8891 9.16425C12.7776 9.05863 12.6264 8.99929 12.4688 8.99929C12.3111 8.99929 12.1599 9.05863 12.0484 9.16425L8.90625 12.1421L7.54538 10.8517C7.49017 10.7995 7.42463 10.758 7.35251 10.7297C7.28038 10.7014 7.20307 10.6868 7.125 10.6868C7.04693 10.6868 6.96962 10.7014 6.89749 10.7297C6.82537 10.758 6.75983 10.7995 6.70462 10.8517C6.64942 10.904 6.60563 10.9661 6.57575 11.0345C6.54588 11.1028 6.5305 11.176 6.5305 11.25C6.5305 11.324 6.54588 11.3972 6.57575 11.4655C6.60563 11.5339 6.64942 11.596 6.70462 11.6483L8.48587 13.3358C8.54103 13.3881 8.60655 13.4297 8.67868 13.4581C8.75082 13.4864 8.82815 13.501 8.90625 13.501C8.98435 13.501 9.06168 13.4864 9.13382 13.4581C9.20595 13.4297 9.27147 13.3881 9.32663 13.3358L12.8891 9.96075Z" fill="black"/>
</g>
<defs>
<clipPath id="clip0_286_24">
<rect width="19" height="18" fill="white"/>
</clipPath>
</defs>
</svg>
