<svg width="35" height="38" viewBox="0 0 35 38" fill="none" xmlns="http://www.w3.org/2000/svg">
<path d="M10 27.4373C9.99992 27.535 10.0267 27.631 10.0777 27.7159C10.1287 27.8008 10.2021 27.8716 10.2908 27.9215C10.3795 27.9713 10.4803 27.9984 10.5834 28.0001C10.6865 28.0018 10.7883 27.978 10.8788 27.9312L17.125 24.7024L23.3713 27.9312C23.4617 27.978 23.5635 28.0018 23.6666 28.0001C23.7697 27.9984 23.8705 27.9713 23.9592 27.9215C24.0479 27.8716 24.1213 27.8008 24.1723 27.7159C24.2233 27.631 24.2501 27.535 24.25 27.4373V12.2498C24.25 11.653 23.9998 11.0808 23.5544 10.6588C23.109 10.2368 22.5049 9.99979 21.875 9.99979H12.375C11.7451 9.99979 11.141 10.2368 10.6956 10.6588C10.2502 11.0808 10 11.653 10 12.2498V27.4373ZM17.125 14.961C18.7721 13.3579 22.8891 16.1648 17.125 19.7727C11.3609 16.1648 15.4779 13.359 17.125 14.9633V14.961Z" fill="black"/>
</svg>
