<svg width="21" height="22" viewBox="0 0 21 22" fill="none" xmlns="http://www.w3.org/2000/svg">
<path d="M3.9375 19.25C3.9375 19.25 2.625 19.25 2.625 17.875C2.625 16.5 3.9375 12.375 10.5 12.375C17.0625 12.375 18.375 16.5 18.375 17.875C18.375 19.25 17.0625 19.25 17.0625 19.25H3.9375ZM10.5 11C11.5443 11 12.5458 10.5654 13.2842 9.79182C14.0227 9.01823 14.4375 7.96902 14.4375 6.875C14.4375 5.78098 14.0227 4.73177 13.2842 3.95818C12.5458 3.1846 11.5443 2.75 10.5 2.75C9.45571 2.75 8.45419 3.1846 7.71577 3.95818C6.97734 4.73177 6.5625 5.78098 6.5625 6.875C6.5625 7.96902 6.97734 9.01823 7.71577 9.79182C8.45419 10.5654 9.45571 11 10.5 11Z" fill="black"/>
</svg>
