<svg width="21" height="22" viewBox="0 0 21 22" fill="none" xmlns="http://www.w3.org/2000/svg">
<path fill-rule="evenodd" clip-rule="evenodd" d="M3.07557 2.66905C5.04468 0.960085 7.71537 0 10.5001 0C13.2849 0 15.9555 0.960085 17.9247 2.66905C19.8938 4.37801 21 6.69586 21 9.1127C21 11.5295 19.8938 13.8474 17.9247 15.5563L10.5001 22L3.07557 15.5563C2.1005 14.7102 1.32703 13.7056 0.799318 12.6C0.271609 11.4944 0 10.3094 0 9.1127C0 7.91598 0.271609 6.73099 0.799318 5.62538C1.32703 4.51978 2.1005 3.51521 3.07557 2.66905ZM10.5001 11.7162C11.2957 11.7162 12.0587 11.4419 12.6213 10.9536C13.1839 10.4654 13.4999 9.80319 13.4999 9.1127C13.4999 8.42221 13.1839 7.76 12.6213 7.27175C12.0587 6.7835 11.2957 6.5092 10.5001 6.5092C9.70451 6.5092 8.9415 6.7835 8.37892 7.27175C7.81635 7.76 7.5003 8.42221 7.5003 9.1127C7.5003 9.80319 7.81635 10.4654 8.37892 10.9536C8.9415 11.4419 9.70451 11.7162 10.5001 11.7162Z" fill="black"/>
</svg>
