<svg width="21" height="22" viewBox="0 0 21 22" fill="none" xmlns="http://www.w3.org/2000/svg">
<path fill-rule="evenodd" clip-rule="evenodd" d="M5.25 0C4.9019 0 4.56806 0.144866 4.32192 0.402728C4.07578 0.660591 3.9375 1.01033 3.9375 1.375V2.75H2.625C1.92881 2.75 1.26113 3.03973 0.768845 3.55546C0.276562 4.07118 0 4.77065 0 5.5V19.25C0 19.9793 0.276562 20.6788 0.768845 21.1945C1.26113 21.7103 1.92881 22 2.625 22H18.375C19.0712 22 19.7389 21.7103 20.2312 21.1945C20.7234 20.6788 21 19.9793 21 19.25V5.5C21 4.77065 20.7234 4.07118 20.2312 3.55546C19.7389 3.03973 19.0712 2.75 18.375 2.75H17.0625V1.375C17.0625 1.01033 16.9242 0.660591 16.6781 0.402728C16.4319 0.144866 16.0981 0 15.75 0C15.4019 0 15.0681 0.144866 14.8219 0.402728C14.5758 0.660591 14.4375 1.01033 14.4375 1.375V2.75H6.5625V1.375C6.5625 1.01033 6.42422 0.660591 6.17808 0.402728C5.93194 0.144866 5.5981 0 5.25 0ZM5.25 6.875C4.9019 6.875 4.56806 7.01987 4.32192 7.27773C4.07578 7.53559 3.9375 7.88533 3.9375 8.25C3.9375 8.61467 4.07578 8.96441 4.32192 9.22227C4.56806 9.48013 4.9019 9.625 5.25 9.625H15.75C16.0981 9.625 16.4319 9.48013 16.6781 9.22227C16.9242 8.96441 17.0625 8.61467 17.0625 8.25C17.0625 7.88533 16.9242 7.53559 16.6781 7.27773C16.4319 7.01987 16.0981 6.875 15.75 6.875H5.25Z" fill="black"/>
</svg>
