<svg width="21" height="22" viewBox="0 0 21 22" fill="none" xmlns="http://www.w3.org/2000/svg">
<g clip-path="url(#clip0_1_76)">
<path fill-rule="evenodd" clip-rule="evenodd" d="M2.625 0C1.92881 0 1.26113 0.331121 0.768845 0.920521C0.276562 1.50992 0 2.30932 0 3.14286V18.8571C0 19.6907 0.276562 20.4901 0.768845 21.0795C1.26113 21.6689 1.92881 22 2.625 22H18.375C19.0712 22 19.7389 21.6689 20.2312 21.0795C20.7234 20.4901 21 19.6907 21 18.8571V3.14286C21 2.30932 20.7234 1.50992 20.2312 0.920521C19.7389 0.331121 19.0712 0 18.375 0H2.625ZM18.375 18.8571H2.625L7.875 6.28571L11.8125 15.7143L14.4375 9.42857L18.375 18.8571Z" fill="black"/>
</g>
<defs>
<clipPath id="clip0_1_76">
<rect width="21" height="22" fill="white"/>
</clipPath>
</defs>
</svg>
