<svg width="21" height="23" viewBox="0 0 21 23" fill="none" xmlns="http://www.w3.org/2000/svg">
<path d="M11.4294 0.902587C11.1829 0.64481 10.8486 0.5 10.5 0.5C10.1514 0.5 9.81714 0.64481 9.57063 0.902587L0.369001 10.5277C0.129551 10.787 -0.00294533 11.1344 4.96923e-05 11.4949C0.00304472 11.8554 0.141291 12.2003 0.385014 12.4552C0.628736 12.7102 0.958434 12.8548 1.3031 12.8579C1.64776 12.8611 1.97981 12.7225 2.22773 12.472L2.61288 12.0691V21.125C2.61288 21.4897 2.75138 21.8394 2.9979 22.0973C3.24442 22.3551 3.57877 22.5 3.9274 22.5H6.55644C6.90507 22.5 7.23943 22.3551 7.48595 22.0973C7.73247 21.8394 7.87096 21.4897 7.87096 21.125V18.3749C7.87096 18.0103 8.00946 17.6605 8.25598 17.4027C8.5025 17.1448 8.83685 16.9999 9.18548 16.9999H11.8145C12.1631 16.9999 12.4975 17.1448 12.744 17.4027C12.9905 17.6605 13.129 18.0103 13.129 18.3749V21.125C13.129 21.4897 13.2675 21.8394 13.5141 22.0973C13.7606 22.3551 14.0949 22.5 14.4436 22.5H17.0726C17.4212 22.5 17.7556 22.3551 18.0021 22.0973C18.2486 21.8394 18.3871 21.4897 18.3871 21.125V12.0691L18.7723 12.472C19.0202 12.7225 19.3522 12.8611 19.6969 12.8579C20.0416 12.8548 20.3713 12.7102 20.615 12.4552C20.8587 12.2003 20.997 11.8554 21 11.4949C21.0029 11.1344 20.8704 10.787 20.631 10.5277L11.4294 0.902587Z" fill="black"/>
</svg>
