<svg width="21" height="22" viewBox="0 0 21 22" fill="none" xmlns="http://www.w3.org/2000/svg">
<path fill-rule="evenodd" clip-rule="evenodd" d="M11.4 19.6C13.6278 19.6 15.7644 18.6729 17.3397 17.0225C18.915 15.3722 19.8 13.1339 19.8 10.8C19.8 8.46609 18.915 6.22778 17.3397 4.57746C15.7644 2.92714 13.6278 2 11.4 2C9.17218 2 7.03561 2.92714 5.4603 4.57746C3.885 6.22778 3 8.46609 3 10.8C3 13.1339 3.885 15.3722 5.4603 17.0225C7.03561 18.6729 9.17218 19.6 11.4 19.6ZM10.9327 7.6848C10.7746 7.57427 10.5908 7.51079 10.4009 7.50113C10.2111 7.49147 10.0223 7.53599 9.85465 7.62994C9.68703 7.72389 9.54691 7.86375 9.44923 8.03459C9.35155 8.20543 9.29997 8.40085 9.3 8.6V13C9.29997 13.1991 9.35155 13.3946 9.44923 13.5654C9.54691 13.7363 9.68703 13.8761 9.85465 13.9701C10.0223 14.064 10.2111 14.1085 10.4009 14.0989C10.5908 14.0892 10.7746 14.0257 10.9327 13.9152L14.0827 11.7152C14.2266 11.6147 14.3445 11.4787 14.426 11.319C14.5076 11.1593 14.5502 10.9811 14.5502 10.8C14.5502 10.6189 14.5076 10.4407 14.426 10.281C14.3445 10.1213 14.2266 9.98526 14.0827 9.8848L10.9327 7.6848Z" fill="black"/>
</svg>
